<svg xmlns="http://www.w3.org/2000/svg" xmlns:xlink="http://www.w3.org/1999/xlink" id="Capa_1" x="0px" y="0px" viewBox="0 0 101 52" xml:space="preserve"><g>	<path d="M51,26c0,13.8-11.2,25-25,25C12.2,51,1,39.8,1,26S12.2,1,26,1C39.8,1,51,12.2,51,26"></path>	<path fill="#23D5E2" d="M36.2,33.4c0.3,0,0.5,0,0.8,0c0.3,0,0.6-0.1,1-0.2c0.6-0.2,1.1-0.4,1.6-0.6c0.1,0,0.1,0,0.2-0.1  c0.3-0.1,0.5-0.1,0.7,0.1c0.1,0,0.1,0.1,0.2,0.1c0.1-0.1,0.2-0.1,0.4-0.2c0.2-0.1,0.3,0,0.4,0.2c0.1,0.2,0.1,0.3,0.1,0.5  c0,0.2-0.1,0.5-0.3,0.6c0,0.1,0,0.2,0,0.3c0,0.3-0.1,0.4-0.4,0.5c-0.3,0.1-0.6,0.1-0.9,0c-0.2-0.1-0.4-0.2-0.6-0.2  c-0.6-0.2-1.1-0.5-1.7-0.7c-0.3-0.1-0.6-0.2-0.9-0.1c-0.1,0-0.2,0-0.4,0c-0.1,0-0.2,0-0.3-0.1c-0.1,0-0.1-0.1-0.1-0.1  C36,33.4,36.1,33.4,36.2,33.4 M38.8,30.3c0.1-0.2,0.3-0.3,0.5-0.4c0.6-0.3,1.2-0.3,1.8-0.2c0.1,0,0.1,0,0.2,0.1  c0.1,0.1,0.1,0.2,0.1,0.3c-0.1,0.3-0.4,0.4-0.7,0.3c-0.4-0.1-0.9-0.1-1.3,0c-0.2,0-0.3,0.1-0.6,0.2C38.7,30.4,38.7,30.3,38.8,30.3   M28.7,8.7c-0.1,0-0.2-0.1-0.2-0.1c-0.5-0.2-0.9-0.1-1.3,0.3c-0.2,0.2-0.3,0.4-0.4,0.6c0,0.1-0.1,0.2-0.1,0.3c-0.1,0-0.2,0-0.3-0.1  c-1.1-0.2-2.1,0.2-2.7,1.2c-0.2,0.3-0.3,0.7-0.5,1.1c-0.3,0.1-0.7,0.2-0.9,0.4c-0.2,0.2-0.5,0.4-0.8,0.7c-0.1,0-0.3,0-0.5,0  c-1.1,0-2,0.8-2.2,1.9c0,0.2-0.1,0.4-0.1,0.6c0,0.1,0,0.2,0,0.3c-1.3,0.4-1.8,0.9-2,2.2c-0.2,0.2-0.4,0.3-0.6,0.5  c-0.5,0.5-0.9,1.1-1,1.8c-0.1,0.6,0,1.2,0.2,1.8c0.1,0.2,0.1,0.3,0.2,0.5c0,0.1-0.1,0.1-0.1,0.2c-0.8,0.8-1,1.7-0.6,2.8  c0,0.1,0.1,0.2,0.1,0.3c0,0,0,0.1,0,0.1c-0.4,0.6-0.5,1.3-0.3,2c0.1,0.4,0.2,0.8,0.4,1.2c0.4,0.7,0.9,1.3,1.5,1.8  c0.1,0.1,0.2,0.2,0.3,0.2c0,0,0,0,0,0c-0.3,0.2-0.6,0.3-1.2,0.4c-0.4,0.1-0.8,0-1.2-0.1c-0.4-0.1-0.8-0.3-1.2-0.6  c-0.3-0.3-0.6-0.6-0.8-1c-0.1,0-0.2,0-0.2-0.1c-1.3-0.3-2.1-1.2-2.4-2.5c-0.2-0.9-0.2-1.8,0.2-2.7c0.1-0.1,0.1-0.3,0.2-0.4  c0.1-0.1,0.1-0.3,0.1-0.5c0-0.4,0-0.9,0-1.3c0.2-6.9,4.5-12.3,10.2-14.5c1.4-0.5,2.8-0.9,4.2-1c2-0.2,3.9-0.1,5.8,0.4  c0.1,0,0.1,0,0.2,0.1c0,0,0,0,0.1,0.1C29.6,8.1,29.7,8.1,28.7,8.7 M9,23.1c0,0.1,0,0.3,0,0.5c-0.2-0.1-0.4-0.2-0.5-0.4  c-0.6-0.6-1-1.3-1.3-2c-0.2-0.4-0.2-0.9-0.1-1.3C7,19,7.3,18.2,7.6,17.5c0.1-0.3,0.3-0.6,0.4-0.9c-0.2-0.6-0.2-1.2-0.2-1.8  c0.1-1.6,0.7-3,1.8-4.1c1.1-1.2,2.5-1.9,4.1-2.2c1-0.2,2-0.2,3-0.1c0.1,0,0.2,0,0.2,0.1c0,0.1-0.1,0.2-0.2,0.2  c-0.8,0.5-1.5,1.1-2.2,1.7c-2.7,2.5-4.4,5.6-5.2,9.1C9.1,20.7,9,21.9,9,23.1 M35.1,46.7c-0.1-0.1-0.1-0.2-0.1-0.3  c-0.1-0.7-0.2-1.5-0.3-2.2c-0.1-0.5-0.1-1-0.2-1.5c0,0,0-0.1,0-0.1c-0.2,0-0.4-0.1-0.6-0.1c-2.6-0.4-4.9-1.5-6.9-3.3  c-0.7-0.7-1.3-1.4-1.7-2.3c-0.1-0.1-0.1-0.3-0.2-0.5c0-0.1,0-0.2,0-0.3c0.1,0,0.2,0,0.2,0c0.1,0,0.1,0.1,0.2,0.2  c0.8,0.9,1.8,1.5,2.8,2.1c1.6,0.9,3.3,1.5,5,1.8c1.2,0.2,2.4,0.3,3.7,0.2c1.1-0.1,2.2-0.3,3.2-0.8c0.4-0.2,0.7-0.5,0.7-1  c0-0.2,0-0.5,0-0.7c0-0.8-0.1-1.6,0-2.4c0.1-0.5,0.2-0.9,0.3-1.4c0.1-0.4,0.2-0.8,0.3-1.3c0.1-0.5,0.1-1,0.1-1.5  c0-0.2,0-0.4-0.1-0.6c-0.2,0-0.3,0.1-0.4,0.1c-0.3,0.1-0.5,0-0.8-0.1c-0.1,0-0.1-0.1-0.1-0.2c0.1,0,0.2,0,0.3,0  c0.4,0,0.7-0.1,0.9-0.4c0.2-0.2,0.4-0.4,0.7-0.4c0.5-0.1,0.8-0.8,0.5-1.2c0,0-0.1-0.1-0.1-0.1c-0.6-0.6-1.1-1.3-1.6-2  c-0.3-0.4-0.5-0.8-0.7-1.1c-0.3-0.4-0.5-0.9-0.7-1.3c-0.3-0.4-0.4-0.9-0.3-1.4c0.1-0.8,0.4-1.5,1.1-2c0,0,0.1-0.1,0.1-0.1  c0,0,0,0,0.1,0c0,0.1-0.1,0.2-0.1,0.3c-0.2,0.4-0.3,0.8-0.3,1.3c0,0.4,0,0.8,0.2,1.2c0.3,0.9,0.8,1.6,1.3,2.4  c0.3,0.4,0.6,0.8,0.9,1.2c0.1,0.1,0.1,0.1,0.2,0.2c0-0.1,0-0.1,0-0.2c-0.2-0.4-0.3-0.8-0.6-1.2c-0.2-0.4-0.3-0.8-0.1-1.3  c0.2-0.5,0.3-1.1,0.4-1.6c0.1-0.2,0.1-0.5,0.1-0.7c0-0.5,0-1.1-0.2-1.5c-0.3-0.6-0.5-1.2-0.8-1.8c-0.1-0.2-0.2-0.4-0.2-0.6  c-0.3-1.4-0.8-2.7-1.5-4c-0.4-0.6-0.8-1.1-1.3-1.6c-0.6-0.6-1.2-1-2-1.4c-0.2-0.1-0.2-0.2-0.2-0.3c0-0.1,0-0.3,0-0.4  c0,0,0-0.1,0-0.1c0.2,0,0.4,0,0.6,0.1c0.4,0.1,0.7,0.3,1.1,0.5c0.8,0.5,1.6,1,2.3,1.7c1.1,1.1,2.1,2.4,2.9,3.8  c0.3,0.5,0.5,1,0.7,1.5c0,0.2,0.1,0.3,0.3,0.3c0.5,0.2,0.9,0.7,1,1.2c0.1,0.2,0.1,0.4,0.3,0.5c0.2,0.2,0.4,0.4,0.5,0.6  c0.4,0.7,0.5,1.4,0.4,2.1c-0.1,0.8-0.4,1.5-1,2.1c-0.2,0.2-0.4,0.4-0.6,0.6c0,0,0,0,0,0.1c0.1,0.6,0,1.1-0.3,1.6  c-0.3,0.4-0.6,0.8-1.1,1c0,0-0.1,0-0.1,0.1c0.1,0.3,0.3,0.6,0.4,0.8c0,0,0.1,0,0.1,0c0.7-0.2,1.3-0.6,1.8-1.2  c0.4-0.6,0.6-1.2,0.3-1.9c0.1-0.1,0.1-0.1,0.2-0.2c0.8-0.8,1.3-1.7,1.4-2.8c0.1-0.7,0-1.3-0.2-1.9c-0.2-0.6-0.5-1.1-1-1.4  c-0.1-0.1-0.2-0.2-0.2-0.3c-0.1-0.5-0.3-0.9-0.7-1.3c-0.2-0.2-0.4-0.4-0.7-0.5c-0.1-0.4-0.3-0.7-0.4-1c-0.5-1.1-1.1-2.1-1.9-3  c-0.6-0.8-1.4-1.6-2.2-2.2c-0.4-0.3-0.9-0.6-1.4-0.9c-0.1-0.1-0.3-0.1-0.5-0.2c-0.1,0-0.2,0-0.2-0.1c-0.2-0.2-0.5-0.4-0.8-0.4  c0.1-0.7-0.1-1.2-0.6-1.7C36.5,7.2,36,7,35.4,7c-0.3-0.2-0.5-0.5-0.7-0.7c-0.1-0.1-0.3-0.2-0.4-0.2c-0.1,0-0.2,0.1-0.2,0.2  c0,0.1,0,0.2,0.1,0.3c0,0.1,0,0.1-0.1,0.4c-0.1,0-0.1-0.1-0.2-0.1c-0.1-0.1-0.2-0.2-0.4-0.3c-0.4-0.2-0.8-0.1-1.1,0.1  c0,0-0.1,0.1-0.2,0.1c-0.1-0.1-0.3-0.1-0.4-0.2c-2.1-0.8-4.2-1.1-6.5-1c-2.1,0.1-4.2,0.6-6.1,1.5c-0.1,0.1-0.2,0.1-0.3,0.2  c-0.7-0.3-1.4-0.3-2.1-0.4c-1.6-0.1-3.2,0.1-4.7,0.6c-1.3,0.5-2.5,1.2-3.5,2.2c-0.1,0.2-0.3,0.3-0.4,0.5c0,0,0,0,0,0  c-0.9,1.1-1.5,2.5-1.6,4c-0.1,0.8,0,1.5,0.2,2.4c-0.1,0.1-0.1,0.2-0.2,0.3C6,18,5.7,19,5.7,20c0,1.4,0.5,2.6,1.4,3.6  c0.4,0.4,0.9,0.8,1.4,1.1c0,0,0.1,0,0.1,0.1c0,0.1,0,0.2-0.1,0.3c-0.3,1.2-0.2,2.3,0.3,3.4c0.2,0.4,0.5,0.8,0.8,1.2  c0.5,0.6,1,0.8,1.9,1c0,0,0.1,0.1,0.1,0.1c0.6,1.1,1.5,1.7,2.6,1.9c0.5,0.1,1,0.1,1.5,0c0.4-0.1,0.8-0.2,1.2-0.3  c0.3-0.1,0.6-0.2,0.9-0.4c0.1-0.1,0.2-0.1,0.3-0.2c0,0,0.1-0.1,0.1-0.2c0-0.1-0.1-0.2-0.1-0.3c-0.1-0.1-0.1-0.2-0.2-0.3  c-0.6-0.6-0.9-1.3-1-2.1c0-0.3-0.1-0.5-0.3-0.7c-0.6-0.7-1-1.6-0.9-2.6c0-1.2,0.6-2.2,1.7-2.8c0,0,0.1,0,0.1-0.1c0,0,0.1,0,0.1-0.1  c0-0.1-0.1-0.2-0.1-0.2c-0.3-0.5-0.4-1.1-0.4-1.7c0-1.3,0.9-2.4,2.1-2.7c0,0,0.1,0,0.1,0c0.3,0,0.5-0.2,0.6-0.4  c0.4-0.5,1-0.8,1.6-0.9c0.3-0.1,0.7-0.1,1,0c0.3,0.1,0.4,0,0.6-0.3c0.1-0.2,0.3-0.5,0.4-0.7c0.2,0,0.4,0,0.6-0.1  c0.2,0,0.3-0.1,0.5-0.2c0.4-0.2,0.6-0.6,0.7-1.1c0-0.1,0-0.2,0-0.4c1.2-0.3,2.2-0.8,2.8-2c0.1,0,0.1,0,0.2,0c0.7,0,1.3-0.2,1.7-0.8  c0,0,0.1-0.1,0.1-0.1c1.2,0,2.3-0.3,3.3-1.2c0.3,0,0.6,0.1,1,0.1c0.3,0,0.6,0,1-0.1c0.1,0.3,0.2,0.5,0.1,0.9  c-0.1,0-0.2,0.1-0.3,0.1c-0.8,0.1-1.5,0.5-2.1,0.9c-0.6,0.5-1.2,1-1.7,1.6c-1.1,1.2-1.9,2.7-2.5,4.2c-0.2,0.5-0.3,1-0.4,1.5  c-0.1,0.9-0.4,1.9-0.8,2.7c-0.5,1.2-1.2,2.3-2,3.3c-0.3,0.4-0.7,0.7-1.1,1c-0.4,0.3-0.8,0.5-1.2,0.6c-0.8,0.2-1.5,0-2.1-0.5  c-0.2-0.1-0.3-0.4-0.4-0.5c-0.1-0.1-0.1-0.2-0.1-0.3c-0.1,0-0.2,0-0.3-0.1c-0.7-0.2-1.2-0.5-1.7-0.9c-0.2-0.2-0.3-0.2-0.5-0.1  c-0.4,0.1-0.6,0.4-0.8,0.7c-0.2,0.4-0.2,0.9-0.1,1.4c0.1,0.5,0.3,0.9,0.7,1.3c0.2,0.2,0.3,0.4,0.3,0.7c0,0.3,0.1,0.7,0.1,1  c0.3,1.3,1.4,2.2,2.7,2.2c0.4,0,0.8,0,1.2-0.1c0.1,0,0.1,0,0.2,0c0,0,0.1,0,0.1,0.1c0,0,0,0.1-0.1,0.1c0,0-0.1,0.1-0.1,0.1  c-0.4,0.2-0.9,0.4-1.4,0.5c-0.6,0.1-1.2,0-1.8-0.2c-0.1,0-0.2-0.1-0.3-0.1c0,0,0,0,0,0C19,32.4,19,32.5,19,32.5  c-0.1,1.8-0.1,3.6-0.2,5.4c-0.1,2.8-0.2,5.5-0.3,8.3c0,0.5,0,0.4-0.4,0.8c-0.2,0.2-0.5,0.4-0.7,0.5c-0.4,0.3-2,0.8-2.5,0.9  C18.2,50.1,22,51,26,51c4.1,0,8-1,11.5-2.8c-1-0.2-0.9-0.2-1.7-0.8C35.5,47.2,35.3,47,35.1,46.7"></path>	<g>		<path d="M59.8,21.5c0.5-0.2,1-0.4,1.5-0.5c0.5-0.2,1-0.3,1.4-0.5c0.4-0.1,0.7-0.2,0.7-0.3c0.6-0.2,1-0.5,1.2-0.9   c0.2-0.4,0.3-0.7,0.3-1.1v-5c0-0.2,0-0.5-0.1-0.7c-0.1-0.3-0.2-0.5-0.5-0.7c-0.2-0.2-0.6-0.4-1-0.6c-0.4-0.2-1-0.2-1.7-0.2   c-0.7,0-1.2,0.1-1.6,0.2c-0.4,0.2-0.7,0.4-0.9,0.6c-0.2,0.2-0.4,0.5-0.4,0.7c-0.1,0.3-0.1,0.5-0.1,0.7v8.6   C58.9,21.8,59.3,21.6,59.8,21.5 M68,34.9h-3.1V22.7c0,0-0.3,0.1-0.8,0.3c-0.5,0.2-1,0.4-1.5,0.5l-2.2,0.7   c-0.3,0.1-0.6,0.2-0.8,0.4c-0.2,0.1-0.4,0.3-0.6,0.6c-0.2,0.2-0.3,0.5-0.3,0.9v0v8.8h-3.1V12.7c0-0.3,0-0.6,0.1-1.1   c0.1-0.5,0.4-1,0.8-1.5c0.4-0.5,1-0.9,1.9-1.3c0.8-0.4,2-0.5,3.4-0.5c1.5,0,2.6,0.2,3.4,0.5c0.8,0.4,1.4,0.8,1.9,1.3   c0.4,0.5,0.7,1,0.8,1.5C68,12,68,12.4,68,12.7V34.9z"></path>		<path d="M80.9,13.6v-0.3c0-0.6-0.2-1.1-0.6-1.5c-0.4-0.4-0.9-0.6-1.5-0.6h-2.2h-2v21.3h2h2.2c0.6,0,1.1-0.2,1.5-0.6   c0.4-0.4,0.6-0.9,0.6-1.5v-0.4V13.6z M84,29.9v0.9c0,0.5-0.1,0.9-0.3,1.4c-0.2,0.5-0.4,0.9-0.8,1.3c-0.3,0.4-0.8,0.7-1.3,1   c-0.5,0.3-1.1,0.4-1.8,0.4h-6.4h-0.1h-1.7V8.5h3.1h5.2c0.7,0,1.3,0.1,1.8,0.4c0.5,0.3,0.9,0.6,1.3,1c0.3,0.4,0.6,0.8,0.8,1.3   c0.2,0.5,0.3,1,0.3,1.4v0.9V29.9z"></path>		<path d="M91.7,21.5c0.5-0.2,1-0.4,1.5-0.5c0.5-0.2,1-0.3,1.4-0.5c0.4-0.1,0.7-0.2,0.7-0.3c0.6-0.2,1-0.5,1.2-0.9   c0.2-0.4,0.3-0.7,0.3-1.1v-5c0-0.2,0-0.5-0.1-0.7c-0.1-0.3-0.2-0.5-0.5-0.7c-0.2-0.2-0.6-0.4-1-0.6c-0.4-0.2-1-0.2-1.7-0.2   c-0.7,0-1.2,0.1-1.6,0.2c-0.4,0.2-0.7,0.4-0.9,0.6c-0.2,0.2-0.4,0.5-0.4,0.7c-0.1,0.3-0.1,0.5-0.1,0.7v8.6   C90.8,21.8,91.2,21.6,91.7,21.5 M99.9,34.9h-3.1V22.7c0,0-0.3,0.1-0.8,0.3c-0.5,0.2-1,0.4-1.5,0.5l-2.2,0.7   c-0.3,0.1-0.6,0.2-0.8,0.4c-0.2,0.1-0.4,0.3-0.6,0.6c-0.2,0.2-0.3,0.5-0.3,0.9v0v8.8h-3.1V12.7c0-0.3,0-0.6,0.1-1.1   c0.1-0.5,0.4-1,0.8-1.5c0.4-0.5,1-0.9,1.9-1.3c0.8-0.4,2-0.5,3.4-0.5c1.5,0,2.6,0.2,3.4,0.5C98,9.1,98.6,9.5,99,10   c0.4,0.5,0.7,1,0.8,1.5c0.1,0.5,0.1,0.9,0.1,1.1V34.9z"></path>		<path d="M55.8,43.6c-0.4-0.1-0.7-0.3-0.9-0.4l0.4-0.9c0.2,0.2,0.5,0.3,0.8,0.4c0.3,0.1,0.6,0.1,0.9,0.1c0.3,0,0.6-0.1,0.8-0.2   c0.2-0.1,0.2-0.2,0.2-0.4c0-0.1,0-0.2-0.1-0.3c-0.1-0.1-0.2-0.1-0.4-0.2c-0.2,0-0.4-0.1-0.6-0.2c-0.4-0.1-0.7-0.2-1-0.3   c-0.3-0.1-0.5-0.2-0.7-0.5C55.1,40.6,55,40.3,55,40c0-0.3,0.1-0.6,0.2-0.8c0.2-0.2,0.4-0.4,0.7-0.6c0.3-0.1,0.7-0.2,1.2-0.2   c0.3,0,0.7,0,1,0.1c0.3,0.1,0.6,0.2,0.8,0.3l-0.4,0.9c-0.5-0.3-1-0.4-1.5-0.4c-0.3,0-0.6,0.1-0.8,0.2c-0.2,0.1-0.2,0.3-0.2,0.4   c0,0.2,0.1,0.3,0.3,0.4c0.2,0.1,0.5,0.2,0.9,0.3c0.4,0.1,0.7,0.2,1,0.3c0.3,0.1,0.5,0.2,0.7,0.4c0.2,0.2,0.3,0.5,0.3,0.8   c0,0.3-0.1,0.6-0.3,0.8c-0.2,0.2-0.4,0.4-0.8,0.6c-0.3,0.1-0.7,0.2-1.2,0.2C56.6,43.8,56.2,43.7,55.8,43.6"></path>		<path d="M63.5,43.4c-0.4-0.2-0.8-0.6-1-1c-0.2-0.4-0.4-0.9-0.4-1.4s0.1-1,0.4-1.4c0.2-0.4,0.6-0.7,1-1c0.4-0.2,0.9-0.3,1.5-0.3   c0.5,0,0.9,0.1,1.2,0.2c0.4,0.2,0.7,0.4,0.9,0.7L66.3,40c-0.4-0.4-0.8-0.6-1.3-0.6c-0.3,0-0.6,0.1-0.9,0.2   c-0.3,0.1-0.5,0.3-0.6,0.6c-0.1,0.3-0.2,0.5-0.2,0.9s0.1,0.6,0.2,0.9c0.1,0.3,0.3,0.5,0.6,0.6c0.3,0.1,0.5,0.2,0.9,0.2   c0.5,0,1-0.2,1.3-0.6l0.8,0.7c-0.2,0.3-0.6,0.5-0.9,0.7c-0.4,0.2-0.8,0.2-1.2,0.2C64.4,43.8,63.9,43.6,63.5,43.4"></path>		<polygon points="75.1,38.4 75.1,43.7 73.9,43.7 73.9,41.5 71.5,41.5 71.5,43.7 70.3,43.7 70.3,38.4 71.5,38.4 71.5,40.5    73.9,40.5 73.9,38.4   "></polygon>		<path d="M82.1,42.5c0.2-0.1,0.4-0.3,0.6-0.6c0.1-0.3,0.2-0.5,0.2-0.9c0-0.3-0.1-0.6-0.2-0.9c-0.1-0.3-0.3-0.5-0.6-0.6   c-0.2-0.1-0.5-0.2-0.8-0.2c-0.3,0-0.6,0.1-0.8,0.2c-0.2,0.1-0.4,0.3-0.6,0.6c-0.1,0.3-0.2,0.5-0.2,0.9c0,0.3,0.1,0.6,0.2,0.9   c0.1,0.3,0.3,0.5,0.6,0.6c0.2,0.1,0.5,0.2,0.8,0.2C81.6,42.7,81.9,42.6,82.1,42.5 M79.8,43.4c-0.4-0.2-0.8-0.6-1-1   c-0.2-0.4-0.4-0.9-0.4-1.4s0.1-1,0.4-1.4c0.2-0.4,0.6-0.7,1-1c0.4-0.2,0.9-0.4,1.5-0.4c0.5,0,1,0.1,1.5,0.4c0.4,0.2,0.8,0.6,1,1   c0.2,0.4,0.4,0.9,0.4,1.4s-0.1,1-0.4,1.4c-0.2,0.4-0.6,0.7-1,1c-0.4,0.2-0.9,0.4-1.5,0.4C80.8,43.8,80.3,43.6,79.8,43.4"></path>		<path d="M90.9,42.5c0.2-0.1,0.4-0.3,0.6-0.6c0.1-0.3,0.2-0.5,0.2-0.9c0-0.3-0.1-0.6-0.2-0.9c-0.1-0.3-0.3-0.5-0.6-0.6   c-0.2-0.1-0.5-0.2-0.8-0.2c-0.3,0-0.6,0.1-0.8,0.2c-0.2,0.1-0.4,0.3-0.6,0.6c-0.1,0.3-0.2,0.5-0.2,0.9c0,0.3,0.1,0.6,0.2,0.9   c0.1,0.3,0.3,0.5,0.6,0.6c0.2,0.1,0.5,0.2,0.8,0.2C90.3,42.7,90.6,42.6,90.9,42.5 M88.5,43.4c-0.4-0.2-0.8-0.6-1-1   c-0.2-0.4-0.4-0.9-0.4-1.4s0.1-1,0.4-1.4c0.2-0.4,0.6-0.7,1-1c0.4-0.2,0.9-0.4,1.5-0.4c0.5,0,1,0.1,1.5,0.4c0.4,0.2,0.8,0.6,1,1   c0.2,0.4,0.4,0.9,0.4,1.4s-0.1,1-0.4,1.4c-0.2,0.4-0.6,0.7-1,1c-0.4,0.2-0.9,0.4-1.5,0.4C89.5,43.8,89,43.6,88.5,43.4"></path>		<polygon points="96.2,38.4 97.4,38.4 97.4,42.7 100,42.7 100,43.7 96.2,43.7   "></polygon>	</g></g></svg>